<svg xmlns="http://www.w3.org/2000/svg"  viewBox="0 0 96 96" width="96px" height="96px" baseProfile="basic"><path fill="#4d4dff" d="M19.052,81.02c-1.655,0-3.587-0.266-5.066-1.668c-1.809-1.714-2.003-4.207-2.048-6.613	c-0.033-1.798-0.018-4.068,0-6.942c0.009-1.417,0.02-2.967,0.025-4.65c0.005-1.653,1.348-2.99,3-2.99c0.003,0,0.006,0,0.01,0	c1.657,0.005,2.996,1.353,2.99,3.01c-0.005,1.689-0.016,3.247-0.025,4.67c-0.019,2.832-0.033,5.069-0.001,6.792	c0.026,1.418,0.131,2.046,0.209,2.321c0.198,0.04,0.601,0.091,1.332,0.063c0.035-0.001,0.07-0.002,0.105-0.002l57.064,0.009	c0.696-0.021,1.046-0.132,1.127-0.213c0.128-0.129,0.341-0.649,0.324-1.775l-0.01-0.609c-0.059-3.844-0.133-8.629-0.088-10.493	c0.039-1.657,1.429-2.957,3.07-2.928c1.657,0.04,2.967,1.414,2.928,3.07c-0.042,1.747,0.035,6.666,0.09,10.258l0.009,0.61	c0.04,2.621-0.653,4.669-2.062,6.091c-1.323,1.335-3.146,2.007-5.408,1.989L19.634,81.01C19.445,81.017,19.25,81.02,19.052,81.02z" opacity=".3"/><path fill="#4d4dff" d="M19.02,80.021c-1.418,0-3.111-0.224-4.346-1.395c-1.528-1.448-1.695-3.712-1.736-5.906	c-0.033-1.785-0.018-4.05,0-6.917c0.009-1.418,0.02-2.97,0.025-4.653c0.003-1.103,0.898-1.994,2-1.994c0.002,0,0.004,0,0.006,0	c1.104,0.003,1.997,0.902,1.994,2.006c-0.005,1.688-0.016,3.245-0.025,4.667c-0.019,2.839-0.033,5.082-0.001,6.817	c0.033,1.766,0.197,2.801,0.488,3.078c0.086,0.082,0.494,0.344,2.088,0.288l57.134,0.008c0.894,0.008,1.497-0.166,1.837-0.509	c0.42-0.424,0.632-1.286,0.614-2.494l-0.009-0.609C79.03,68.57,78.957,63.797,79,61.952c0.026-1.104,0.923-1.974,2.047-1.952	c1.104,0.026,1.978,0.943,1.952,2.047c-0.042,1.766,0.034,6.697,0.089,10.297l0.01,0.61c0.036,2.342-0.561,4.149-1.773,5.372	c-1.114,1.124-2.67,1.693-4.625,1.693c-0.022,0-0.043,0-0.066,0L19.583,80.01C19.402,80.017,19.213,80.021,19.02,80.021z" opacity=".3"/><path fill="#e0e722" d="M60.003,25c-0.06,0-0.119-0.001-0.179-0.005c-1.654-0.097-2.916-1.517-2.819-3.17	c0.099-1.678,0.005-2.46-0.102-2.824H39.096c-0.139,0.482-0.173,1.437-0.1,2.846c0.085,1.655-1.188,3.065-2.842,3.15	c-1.668,0.079-3.065-1.188-3.15-2.842c-0.103-1.991-0.274-5.322,1.823-7.494c0.749-0.776,2.078-1.679,4.222-1.66L57,13	c2.138-0.018,3.434,0.891,4.185,1.674c2.121,2.212,1.919,5.653,1.81,7.501C62.901,23.77,61.579,25,60.003,25z" opacity=".3"/><path fill="#e0e722" d="M60.002,24c-0.04,0-0.079-0.001-0.119-0.003c-1.103-0.065-1.944-1.011-1.879-2.114	c0.121-2.064-0.023-3.325-0.428-3.748c-0.037-0.039-0.144-0.141-0.542-0.135L39,18c-0.45-0.006-0.543,0.098-0.576,0.132	c-0.589,0.61-0.471,2.902-0.427,3.765c0.057,1.103-0.792,2.043-1.895,2.1c-1.1,0.045-2.043-0.792-2.1-1.895	c-0.094-1.828-0.251-4.888,1.543-6.748c0.612-0.633,1.738-1.394,3.486-1.354L57,14c1.727-0.036,2.849,0.727,3.462,1.366	c1.819,1.897,1.634,5.055,1.534,6.751C61.934,23.18,61.053,24,60.002,24z" opacity=".3"/><path fill="#0fd2ff" d="M65.769,60.044c-2.336,0-4.943-0.011-7.804-0.044c-1.657-0.02-2.984-1.378-2.965-3.035	s1.385-2.984,3.035-2.965c6.044,0.072,10.962,0.041,14.553,0.019c1.398-0.009,2.604-0.016,3.608-0.016c2.593,0,2.805,0,2.805-3.436	c0-1.109-0.021-2.385-0.046-3.87c-0.065-3.903-0.155-9.248,0.046-16.777c0.008-0.28-0.131-0.482-0.248-0.603	C78.557,29.116,78.282,29,78,29H17.66c-0.251,0-0.419,0.019-0.524,0.038c-0.055,0.191-0.134,0.607-0.134,1.41	c0,5.118-0.015,8.854-0.026,11.76c-0.016,4.012-0.025,6.434,0.019,8.721c0.041,2.135,0.291,2.517,0.34,2.571	c0.004,0.005,0.506,0.502,3.792,0.502c1.029,0,2.215,0.007,3.565,0.016c3.456,0.021,7.757,0.047,13.273-0.018	c1.698-0.013,3.016,1.308,3.036,2.964c0.02,1.657-1.308,3.016-2.964,3.036c-5.572,0.066-10.085,0.038-13.381,0.018	c-1.336-0.008-2.51-0.016-3.528-0.016c-7.354,0-10.005-2.345-10.131-8.959c-0.045-2.356-0.035-4.804-0.02-8.858	c0.011-2.901,0.026-6.63,0.026-11.737c0-6.48,4.171-7.447,6.658-7.447H78c1.892,0,3.733,0.777,5.052,2.131	c1.305,1.34,1.996,3.098,1.947,4.949c-0.198,7.399-0.109,12.668-0.045,16.516c0.025,1.523,0.047,2.833,0.047,3.971	c0,2.823,0,9.436-8.805,9.436c-0.994,0-2.187,0.007-3.571,0.016C70.707,60.03,68.412,60.044,65.769,60.044z" opacity=".3"/><path fill="#0fd2ff" d="M65.769,59.044c-2.333,0-4.937-0.011-7.792-0.044c-1.104-0.013-1.989-0.919-1.977-2.023	C56.013,55.88,56.906,55,58,55c0.008,0,0.016,0,0.024,0c6.054,0.072,10.976,0.041,14.571,0.019c1.396-0.009,2.599-0.016,3.602-0.016	c3.272,0,3.805-0.622,3.805-4.436c0-1.114-0.021-2.396-0.046-3.887C79.89,42.787,79.8,37.454,80,29.947	c0.013-0.491-0.175-0.962-0.531-1.327C79.086,28.226,78.551,28,78,28H17.66c-1.173,0-1.658,0-1.658,2.447	c0,5.116-0.015,8.851-0.026,11.757c-0.016,4.019-0.025,6.445,0.019,8.744c0.065,3.436,0.077,4.055,5.132,4.055	c1.027,0,2.211,0.007,3.56,0.016c3.459,0.022,7.766,0.048,13.291-0.018c1.074-0.033,2.01,0.872,2.024,1.976	c0.013,1.104-0.872,2.011-1.976,2.024c-5.561,0.066-10.071,0.039-13.363,0.018c-1.339-0.008-2.515-0.016-3.535-0.016	c-6.797,0-9.016-1.939-9.131-7.979c-0.045-2.345-0.035-4.788-0.02-8.835c0.011-2.902,0.026-6.632,0.026-11.741	c0-4.278,1.904-6.447,5.658-6.447H78c1.624,0,3.204,0.667,4.335,1.829c1.115,1.146,1.706,2.646,1.664,4.225	c-0.198,7.42-0.11,12.703-0.045,16.56c0.026,1.517,0.047,2.82,0.047,3.954c0,4.381-0.946,8.436-7.805,8.436	c-0.996,0-2.191,0.007-3.577,0.016C70.702,59.03,68.41,59.044,65.769,59.044z" opacity=".3"/><path fill="#e0e722" d="M48.737,66.021c-0.435,0-0.857-0.015-1.261-0.029c-0.33-0.011-0.655-0.023-0.969-0.023	c-2.035,0-3.645-0.594-4.785-1.766c-1.903-1.956-1.827-4.752-1.753-7.458C39.984,56.185,40,55.601,40,55	c0-0.769,0.289-1.469,0.764-2c-0.489-0.547-0.78-1.273-0.763-2.064c0.037-1.657,1.411-2.962,3.064-2.935	c1.862,0.042,3.54,0.017,4.887-0.002l1.198-0.015c0.027,0,0.054,0,0.081,0c4.167,0,6.605,2.523,6.694,6.934l0.013,0.569	c0.024,0.977,0.055,2.191-0.009,3.648c-0.162,3.659-1.668,5.876-4.477,6.591C50.519,65.962,49.602,66.021,48.737,66.021z M46.107,60.129h0.01H46.107z M46.044,59.939c0.103,0.015,0.253,0.029,0.463,0.029c0.381,0,0.777,0.013,1.178,0.027	c0.771,0.026,1.564,0.054,2.132-0.051c0.041-0.172,0.091-0.492,0.117-1.074c0.055-1.25,0.029-2.304,0.005-3.233l-0.014-0.598	c-0.011-0.552-0.077-0.861-0.122-1.011c-0.111-0.021-0.311-0.042-0.606-0.043l-1.162,0.014c-0.661,0.009-1.397,0.02-2.199,0.023	C45.942,54.328,46,54.657,46,55c0,0.657-0.017,1.296-0.034,1.909C45.939,57.893,45.9,59.324,46.044,59.939z" opacity=".3"/><path fill="#e0e722" d="M48.726,65.021c-0.418,0-0.825-0.015-1.215-0.028c-0.342-0.012-0.679-0.024-1.004-0.024	c-1.755,0-3.124-0.492-4.068-1.463c-1.609-1.653-1.542-4.121-1.471-6.733C40.983,56.204,41,55.61,41,55c0-1.099,0.886-1.99,1.982-2	c-0.008,0-0.017,0-0.025,0c-1.104-0.024-1.98-0.938-1.957-2.042c0.024-1.104,0.939-1.981,2.042-1.957	c1.88,0.04,3.567,0.016,4.923-0.002l1.192-0.015c2.567-0.008,5.667,0.997,5.767,5.954l0.014,0.574	c0.024,0.96,0.054,2.156-0.009,3.579c-0.058,1.305-0.211,4.772-3.725,5.666C50.374,64.968,49.53,65.021,48.726,65.021z M43.102,53.002C44.159,53.056,45,53.93,45,55c0,0.647-0.017,1.277-0.033,1.881c-0.041,1.511-0.092,3.391,0.339,3.834	c0.058,0.059,0.314,0.252,1.202,0.252c0.37,0,0.753,0.013,1.144,0.027c0.914,0.031,1.86,0.064,2.567-0.116	c0.313-0.079,0.635-0.161,0.715-1.965c0.057-1.284,0.03-2.356,0.006-3.302l-0.014-0.593c-0.041-2.047-0.564-2.039-1.736-2.035	l-1.168,0.014C46.669,53.018,44.993,53.042,43.102,53.002z" opacity=".3"/><path fill="#4d4dff" d="M19.079,79.02c-1.741,0-2.908-0.352-3.718-1.119c-1.125-1.067-1.379-2.78-1.424-5.199	c-0.033-1.772-0.018-4.032,0.001-6.892c0.009-1.419,0.02-2.972,0.025-4.657c0.002-0.551,0.449-0.997,1-0.997	c0.001,0,0.002,0,0.003,0c0.552,0.002,0.999,0.451,0.997,1.003c-0.005,1.687-0.016,3.242-0.025,4.663	c-0.019,2.846-0.033,5.095-0.001,6.842c0.034,1.849,0.183,3.2,0.8,3.785c0.458,0.434,1.354,0.616,2.811,0.562l57.099,0.008	c1.162,0.009,2.003-0.255,2.548-0.805c0.623-0.628,0.926-1.709,0.903-3.214l-0.009-0.609c-0.056-3.625-0.132-8.589-0.089-10.415	c0.013-0.552,0.474-0.983,1.023-0.976c0.552,0.013,0.989,0.471,0.976,1.023c-0.042,1.786,0.034,6.728,0.09,10.336l0.009,0.61	c0.031,2.062-0.467,3.627-1.483,4.652c-0.93,0.938-2.27,1.402-3.975,1.397L19.583,79.01C19.41,79.017,19.242,79.02,19.079,79.02z"/><path fill="#e0e722" d="M60.001,23c-0.02,0-0.04,0-0.06-0.002c-0.551-0.032-0.972-0.505-0.939-1.057	c0.067-1.151,0.208-3.546-0.705-4.499c-0.188-0.196-0.515-0.455-1.28-0.442H39c-0.756-0.015-1.109,0.244-1.296,0.438	c-0.891,0.922-0.771,3.257-0.706,4.511c0.028,0.551-0.396,1.021-0.947,1.05c-0.534,0.03-1.021-0.396-1.05-0.947	c-0.086-1.666-0.229-4.455,1.264-6.002c0.689-0.713,1.614-1.073,2.751-1.049H57c1.113-0.016,2.049,0.337,2.741,1.058	c1.333,1.391,1.393,3.706,1.257,6C60.967,22.59,60.526,23,60.001,23z"/><path fill="#0fd2ff" d="M65.77,58.044c-2.33,0-4.93-0.011-7.781-0.044c-0.552-0.006-0.995-0.459-0.988-1.012	c0.006-0.553,0.418-1.011,1.012-0.988c6.062,0.072,10.989,0.041,14.589,0.019c1.394-0.009,2.595-0.016,3.596-0.016	c4.111,0,4.805-1.357,4.805-5.436c0-1.119-0.021-2.406-0.047-3.904c-0.065-3.884-0.154-9.204,0.046-16.69	c0.021-0.762-0.269-1.491-0.814-2.051C79.616,27.336,78.819,27,78,27H17.66c-1.801,0-2.658,0.516-2.658,3.447	c0,5.114-0.015,8.848-0.026,11.753c-0.016,4.026-0.025,6.456,0.019,8.767c0.072,3.826,0.37,5.036,6.131,5.036	c1.025,0,2.208,0.007,3.553,0.016c3.464,0.021,7.773,0.047,13.309-0.018c0.518,0.022,1.005,0.436,1.012,0.988	c0.006,0.552-0.436,1.005-0.988,1.012c-5.552,0.066-10.056,0.039-13.345,0.018c-1.341-0.008-2.52-0.016-3.541-0.016	c-6.887,0-8.038-2.063-8.131-6.998c-0.044-2.333-0.035-4.772-0.019-8.813c0.011-2.903,0.026-6.634,0.026-11.745	c0-2.338,0.483-5.447,4.658-5.447H78c1.355,0,2.674,0.557,3.619,1.527c0.925,0.95,1.416,2.193,1.38,3.5	c-0.199,7.442-0.11,12.737-0.045,16.603c0.025,1.511,0.047,2.808,0.047,3.937c0,4.59-1.138,7.436-6.805,7.436	c-0.998,0-2.195,0.007-3.583,0.016C70.698,58.03,68.407,58.044,65.77,58.044z"/><path fill="#e0e722" d="M48.717,64.02c-0.401,0-0.795-0.014-1.171-0.027c-0.354-0.013-0.703-0.025-1.039-0.025	c-1.496,0-2.592-0.379-3.352-1.16c-1.315-1.351-1.256-3.509-1.188-6.008C41.983,56.222,42,55.62,42,55c0-0.552,0.448-1,1-1	s1,0.448,1,1c0,0.638-0.017,1.259-0.033,1.854c-0.056,2.046-0.104,3.813,0.622,4.559c0.364,0.374,0.991,0.555,1.918,0.555	c0.359,0,0.73,0.013,1.108,0.026c0.984,0.034,2.002,0.07,2.849-0.146c1.013-0.257,1.383-0.987,1.467-2.89	c0.058-1.319,0.031-2.41,0.007-3.372l-0.014-0.588c-0.051-2.551-1.038-3.007-2.743-3.014l-1.174,0.014	c-1.38,0.02-3.098,0.042-5.029,0.002c-0.552-0.012-0.99-0.469-0.979-1.021c0.012-0.552,0.462-1,1.021-0.979	c1.898,0.041,3.595,0.017,4.958-0.001l1.186-0.015c3.163-0.031,4.691,1.603,4.759,4.974l0.013,0.579	c0.024,0.945,0.053,2.122-0.008,3.51c-0.053,1.206-0.178,4.03-2.972,4.741C50.228,63.973,49.459,64.02,48.717,64.02z"/></svg>